<svg width="65" height="64" viewBox="0 0 65 64" fill="none" xmlns="http://www.w3.org/2000/svg">
<rect x="1" y="13" width="64" height="39" fill="#1D221C"/>
<path d="M3.77273 20.7273L10.6818 40.3182H10.9545L17.8636 20.7273H20.8182L12.2727 44H9.36364L0.818182 20.7273H3.77273ZM24.4432 44V20.7273H32.5795C34.2008 20.7273 35.5379 21.0076 36.5909 21.5682C37.6439 22.1212 38.428 22.8674 38.9432 23.8068C39.4583 24.7386 39.7159 25.7727 39.7159 26.9091C39.7159 27.9091 39.5379 28.7348 39.1818 29.3864C38.8333 30.0379 38.3712 30.553 37.7955 30.9318C37.2273 31.3106 36.6098 31.5909 35.9432 31.7727V32C36.6553 32.0455 37.3712 32.2955 38.0909 32.75C38.8106 33.2045 39.4129 33.8561 39.8977 34.7045C40.3826 35.553 40.625 36.5909 40.625 37.8182C40.625 38.9848 40.3598 40.0341 39.8295 40.9659C39.2992 41.8977 38.4621 42.6364 37.3182 43.1818C36.1742 43.7273 34.6856 44 32.8523 44H24.4432ZM27.2614 41.5H32.8523C34.6932 41.5 36 41.1439 36.7727 40.4318C37.553 39.7121 37.9432 38.8409 37.9432 37.8182C37.9432 37.0303 37.7424 36.303 37.3409 35.6364C36.9394 34.9621 36.3674 34.4242 35.625 34.0227C34.8826 33.6136 34.0038 33.4091 32.9886 33.4091H27.2614V41.5ZM27.2614 30.9545H32.4886C33.3371 30.9545 34.1023 30.7879 34.7841 30.4545C35.4735 30.1212 36.0189 29.6515 36.4205 29.0455C36.8295 28.4394 37.0341 27.7273 37.0341 26.9091C37.0341 25.8864 36.678 25.0189 35.9659 24.3068C35.2538 23.5871 34.125 23.2273 32.5795 23.2273H27.2614V30.9545ZM52.4375 44H45.2557V20.7273H52.7557C55.0133 20.7273 56.9451 21.1932 58.5511 22.125C60.1572 23.0492 61.3883 24.3788 62.2443 26.1136C63.1004 27.8409 63.5284 29.9091 63.5284 32.3182C63.5284 34.7424 63.0966 36.8295 62.233 38.5795C61.3693 40.322 60.1117 41.6629 58.4602 42.6023C56.8087 43.5341 54.8011 44 52.4375 44ZM48.0739 41.5H52.2557C54.1799 41.5 55.7746 41.1288 57.0398 40.3864C58.3049 39.6439 59.2481 38.5871 59.8693 37.2159C60.4905 35.8447 60.8011 34.2121 60.8011 32.3182C60.8011 30.4394 60.4943 28.822 59.8807 27.4659C59.267 26.1023 58.3504 25.0568 57.1307 24.3295C55.911 23.5947 54.392 23.2273 52.5739 23.2273H48.0739V41.5Z" fill="#F8F8F8"/>
<rect x="1.5" y="0.5" width="63" height="63" stroke="black"/>
</svg>