<svg width="64" height="64" viewBox="0 0 64 64" fill="none" xmlns="http://www.w3.org/2000/svg">
<g id="shopping card">
<circle id="BW" cx="23" cy="50" r="4" fill="black"/>
<circle id="BW_2" cx="45" cy="50" r="4" fill="black"/>
<path id="cart" d="M50 43.7503C46 43.7503 22 43.7503 18 43.7503C14 43.7503 10.5 37.7503 16.9846 37.7503M13.9385 19.7503C13.9385 19.7503 15.8284 19.7503 17 19.7503C17.6568 19.7503 18.3241 19.7503 19 19.7503C31.2323 19.7503 46.2512 19.7503 52 19.7503C52.9213 19.7503 53.6045 19.7503 54 19.7503C57 19.7503 57 19.7503 56.1192 22.7503M16.9846 37.7503H20C20 37.7503 20.7461 37.7503 22 37.7503C27.2641 37.7503 41.4772 37.7503 47 37.7503C47.9604 37.7503 48.6579 37.7503 49 37.7503C51.7778 37.7503 51.7778 37.7503 52.625 34.7503M16.9846 37.7503L15.4615 28.7503L13.0923 14.7503C11.0573 13.7348 9.93405 13.7651 8 14.7503M52.625 34.7503C53.201 32.7106 55.2384 25.7503 56.1192 22.7503M52.625 34.7503L53.4986 31.7503L54.3721 28.7503L55.2456 25.7503L56.1192 22.7503M20 25.7503H50.3333M21 31.7503L48.6667 31.7503" stroke="black" stroke-width="4" stroke-linecap="round"/>
</g>
</svg>
